<svg width="217" height="227" viewBox="0 0 217 227" fill="none" xmlns="http://www.w3.org/2000/svg">
<path d="M0.125 84.1719C0.125 72.653 4.70082 61.606 12.8459 53.461L53.5859 12.7209C61.731 4.57584 72.778 3.30048e-06 84.2969 3.30048e-06H108.188C108.188 88.4404 108.188 138.025 108.188 226.466H84.2969C72.778 226.466 61.731 221.89 53.5859 213.745L12.8459 173.005C4.70084 164.86 0.125 153.813 0.125 142.294V84.1719Z" fill="url(#paint0_linear_1_23)"/>
<path d="M216.25 142.294C216.25 153.813 211.674 164.86 203.529 173.005L162.789 213.745C154.644 221.89 143.597 226.466 132.078 226.466H108.188C108.188 138.025 108.188 88.4404 108.188 3.30048e-06L132.078 0C143.597 -1.59132e-06 154.644 4.57582 162.789 12.7209L203.529 53.4609C211.674 61.606 216.25 72.653 216.25 84.1719L216.25 142.294Z" fill="url(#paint1_linear_1_23)"/>
<path d="M108.675 25.8523V85.7594L159.309 108.385L108.675 25.8523Z" fill="white" fill-opacity="0.602"/>
<path d="M108.675 25.8523L58.0341 108.385L108.675 85.7594V25.8523Z" fill="white"/>
<path d="M108.675 147.206V187.912L159.343 117.813L108.675 147.206Z" fill="white" fill-opacity="0.602"/>
<path d="M108.675 187.912V147.2L58.0341 117.813L108.675 187.912Z" fill="white"/>
<path d="M108.675 137.785L159.309 108.385L108.675 85.7729V137.785Z" fill="white" fill-opacity="0.2"/>
<path d="M58.0341 108.385L108.675 137.785V85.7729L58.0341 108.385Z" fill="white" fill-opacity="0.602"/>
<defs>
<linearGradient id="paint0_linear_1_23" x1="108.188" y1="0" x2="108.188" y2="226.466" gradientUnits="userSpaceOnUse">
<stop stop-color="#627EEA"/>
<stop offset="0.545" stop-color="#6288EA"/>
<stop offset="1" stop-color="#3E5DD6"/>
</linearGradient>
<linearGradient id="paint1_linear_1_23" x1="108.188" y1="0" x2="108.188" y2="226.466" gradientUnits="userSpaceOnUse">
<stop stop-color="#627EEA"/>
<stop offset="0.545" stop-color="#6288EA"/>
<stop offset="1" stop-color="#3E5DD6"/>
</linearGradient>
</defs>
</svg>
