<svg width="133" height="125" viewBox="0 0 133 125" fill="none" xmlns="http://www.w3.org/2000/svg">
<path d="M133 109C133 144.899 103.227 109 66.5 109C29.7731 109 0 144.899 0 109C0 73.1015 29.7731 44 66.5 44C103.227 44 133 73.1015 133 109Z" fill="#D4FC79"/>
<path d="M92.9686 4.44016C92.6594 1.6961 90.1842 -0.277753 87.4402 0.0314372L42.7231 5.06998C39.9791 5.37917 38.0052 7.85432 38.3144 10.5984C38.6236 13.3424 41.0987 15.3163 43.8428 15.0071L83.5913 10.5284L88.07 50.2769C88.3792 53.0209 90.8543 54.9948 93.5984 54.6856C96.3424 54.3764 98.3163 51.9013 98.0071 49.1572L92.9686 4.44016ZM25 84L28.9092 87.1174L91.9092 8.11743L88 5L84.0908 1.88256L21.0908 80.8826L25 84Z" fill="#D4FC79"/>
</svg>
