<svg width="217" height="227" viewBox="0 0 217 227" fill="none" xmlns="http://www.w3.org/2000/svg">
<path d="M0.125 84.6378C0.125 73.1189 4.70082 62.0719 12.8459 53.9269L53.5859 13.1868C61.731 5.04176 72.778 0.465915 84.2969 0.465915H108.188C108.188 88.9063 108.188 138.491 108.188 226.932H84.2969C72.778 226.932 61.731 222.356 53.5859 214.211L12.8459 173.471C4.70084 165.326 0.125 154.279 0.125 142.76V84.6378Z" fill="url(#paint0_linear_6_10)"/>
<path d="M216.25 142.76C216.25 154.279 211.674 165.326 203.529 173.471L162.789 214.211C154.644 222.356 143.597 226.932 132.078 226.932H108.188C108.188 138.491 108.188 88.9063 108.188 0.465915L132.078 0.465912C143.597 0.46591 154.644 5.04173 162.789 13.1868L203.529 53.9268C211.674 62.0719 216.25 73.1189 216.25 84.6378L216.25 142.76Z" fill="url(#paint1_linear_6_10)"/>
<path fill-rule="evenodd" clip-rule="evenodd" d="M121.031 116.931V116.918C120.313 116.97 116.61 117.192 108.347 117.192C101.751 117.192 97.1072 116.996 95.4744 116.918V116.937C70.0809 115.82 51.1272 111.399 51.1272 106.109C51.1272 100.825 70.0809 96.4031 95.4744 95.2666V112.535C97.1333 112.653 101.888 112.934 108.459 112.934C116.342 112.934 120.293 112.607 121.031 112.542V95.2797C146.372 96.4096 165.28 100.831 165.28 106.109C165.28 111.399 146.372 115.807 121.031 116.931ZM121.031 93.4836V78.0307H156.391V54.4659H60.1142V78.0307H95.4744V93.4771C66.7369 94.7964 45.125 100.492 45.125 107.31C45.125 114.129 66.7369 119.818 95.4744 121.143V170.663H121.031V121.13C149.723 119.811 171.283 114.122 171.283 107.31C171.283 100.498 149.723 94.8094 121.031 93.4836Z" fill="white"/>
<defs>
<linearGradient id="paint0_linear_6_10" x1="108.188" y1="0.465912" x2="108.188" y2="226.932" gradientUnits="userSpaceOnUse">
<stop stop-color="#2AAC4F"/>
<stop offset="1" stop-color="#85F3BE"/>
</linearGradient>
<linearGradient id="paint1_linear_6_10" x1="108.188" y1="0.465912" x2="108.188" y2="226.932" gradientUnits="userSpaceOnUse">
<stop stop-color="#2AAC4F"/>
<stop offset="1" stop-color="#85F3BE"/>
</linearGradient>
</defs>
</svg>
